<mxfile host="app.diagrams.net" modified="2024-07-09T23:29:54.122Z" agent="Mozilla/5.0 (Windows NT 10.0; Win64; x64) AppleWebKit/537.36 (KHTML, like Gecko) Chrome/126.0.0.0 Safari/537.36" etag="l2DEXoDx7m3wqhvjYimi" version="24.6.4" type="github">
  <diagram name="PÃ¡gina-1" id="4UtpIA5pA-jc6MiJ78ef">
    <mxGraphModel dx="1434" dy="772" grid="1" gridSize="10" guides="1" tooltips="1" connect="1" arrows="1" fold="1" page="1" pageScale="1" pageWidth="827" pageHeight="1169" math="0" shadow="0">
      <root>
        <mxCell id="0" />
        <mxCell id="1" parent="0" />
        <mxCell id="GBDCZMwrN2OEnTVYeTNW-12" value="Usuario" style="swimlane;fontStyle=1;align=center;verticalAlign=top;childLayout=stackLayout;horizontal=1;startSize=26;horizontalStack=0;resizeParent=1;resizeParentMax=0;resizeLast=0;collapsible=1;marginBottom=0;whiteSpace=wrap;html=1;" parent="1" vertex="1">
          <mxGeometry x="320" y="330" width="300" height="250" as="geometry" />
        </mxCell>
        <mxCell id="GBDCZMwrN2OEnTVYeTNW-13" value="+ login: String&lt;div&gt;- password: String&lt;/div&gt;&lt;div&gt;# email: String&lt;/div&gt;&lt;div&gt;# phone: String&lt;/div&gt;&lt;div&gt;# addr: String&lt;/div&gt;&lt;div&gt;# cpf: String&lt;/div&gt;&lt;div&gt;+ favoritos: vector&amp;lt;Anuncio&amp;gt;&lt;/div&gt;&lt;div&gt;+ anuncios: vector&amp;lt;Anuncio&amp;gt;&lt;/div&gt;&lt;div&gt;+ compras: vector&amp;lt;Compra&amp;gt;&lt;/div&gt;" style="text;strokeColor=none;fillColor=none;align=left;verticalAlign=top;spacingLeft=4;spacingRight=4;overflow=hidden;rotatable=0;points=[[0,0.5],[1,0.5]];portConstraint=eastwest;whiteSpace=wrap;html=1;" parent="GBDCZMwrN2OEnTVYeTNW-12" vertex="1">
          <mxGeometry y="26" width="300" height="134" as="geometry" />
        </mxCell>
        <mxCell id="GBDCZMwrN2OEnTVYeTNW-14" value="" style="line;strokeWidth=1;fillColor=none;align=left;verticalAlign=middle;spacingTop=-1;spacingLeft=3;spacingRight=3;rotatable=0;labelPosition=right;points=[];portConstraint=eastwest;strokeColor=inherit;" parent="GBDCZMwrN2OEnTVYeTNW-12" vertex="1">
          <mxGeometry y="160" width="300" height="8" as="geometry" />
        </mxCell>
        <mxCell id="GBDCZMwrN2OEnTVYeTNW-15" value="+ criarAnuncio(produto: Produto): Anuncio&lt;div&gt;+ deletarAnuncio(anuncioDeletar: Anuncio): bool&lt;/div&gt;&lt;div&gt;+ comprar(anuncioCompra: Anuncio): Compra&lt;/div&gt;&lt;div&gt;+ cancelarCompra(compraCancelar: Compra): bool&lt;/div&gt;&lt;div&gt;+ favoritar(anuncioFavoritar: Anuncio): bool&lt;/div&gt;" style="text;strokeColor=none;fillColor=none;align=left;verticalAlign=top;spacingLeft=4;spacingRight=4;overflow=hidden;rotatable=0;points=[[0,0.5],[1,0.5]];portConstraint=eastwest;whiteSpace=wrap;html=1;" parent="GBDCZMwrN2OEnTVYeTNW-12" vertex="1">
          <mxGeometry y="168" width="300" height="82" as="geometry" />
        </mxCell>
        <mxCell id="VvSZPGDxIsRxTQjycEGm-1" value="Anuncio" style="swimlane;fontStyle=1;align=center;verticalAlign=top;childLayout=stackLayout;horizontal=1;startSize=26;horizontalStack=0;resizeParent=1;resizeParentMax=0;resizeLast=0;collapsible=1;marginBottom=0;whiteSpace=wrap;html=1;" parent="1" vertex="1">
          <mxGeometry x="710" y="330" width="160" height="164" as="geometry" />
        </mxCell>
        <mxCell id="VvSZPGDxIsRxTQjycEGm-2" value="+ Produto: Produto&lt;div&gt;+ Preco: float&lt;/div&gt;&lt;div&gt;+ Anunciante: Usuario&lt;/div&gt;&lt;div&gt;+ Status: bool&lt;/div&gt;&lt;div&gt;+ DataAnunciado: Date&lt;/div&gt;" style="text;strokeColor=none;fillColor=none;align=left;verticalAlign=top;spacingLeft=4;spacingRight=4;overflow=hidden;rotatable=0;points=[[0,0.5],[1,0.5]];portConstraint=eastwest;whiteSpace=wrap;html=1;" parent="VvSZPGDxIsRxTQjycEGm-1" vertex="1">
          <mxGeometry y="26" width="160" height="104" as="geometry" />
        </mxCell>
        <mxCell id="VvSZPGDxIsRxTQjycEGm-3" value="" style="line;strokeWidth=1;fillColor=none;align=left;verticalAlign=middle;spacingTop=-1;spacingLeft=3;spacingRight=3;rotatable=0;labelPosition=right;points=[];portConstraint=eastwest;strokeColor=inherit;" parent="VvSZPGDxIsRxTQjycEGm-1" vertex="1">
          <mxGeometry y="130" width="160" height="8" as="geometry" />
        </mxCell>
        <mxCell id="VvSZPGDxIsRxTQjycEGm-4" value="+ method(type): type" style="text;strokeColor=none;fillColor=none;align=left;verticalAlign=top;spacingLeft=4;spacingRight=4;overflow=hidden;rotatable=0;points=[[0,0.5],[1,0.5]];portConstraint=eastwest;whiteSpace=wrap;html=1;" parent="VvSZPGDxIsRxTQjycEGm-1" vertex="1">
          <mxGeometry y="138" width="160" height="26" as="geometry" />
        </mxCell>
        <mxCell id="VvSZPGDxIsRxTQjycEGm-5" value="Produto" style="swimlane;fontStyle=1;align=center;verticalAlign=top;childLayout=stackLayout;horizontal=1;startSize=26;horizontalStack=0;resizeParent=1;resizeParentMax=0;resizeLast=0;collapsible=1;marginBottom=0;whiteSpace=wrap;html=1;" parent="1" vertex="1">
          <mxGeometry x="40" y="330" width="160" height="154" as="geometry" />
        </mxCell>
        <mxCell id="VvSZPGDxIsRxTQjycEGm-6" value="+ nome: std::string&lt;div&gt;+ id: int&lt;/div&gt;&lt;div&gt;+ Unidades: int&lt;/div&gt;&lt;div&gt;+ Disponibilidade: bool&lt;/div&gt;&lt;div&gt;+ Departamnto: std::string&lt;/div&gt;" style="text;strokeColor=none;fillColor=none;align=left;verticalAlign=top;spacingLeft=4;spacingRight=4;overflow=hidden;rotatable=0;points=[[0,0.5],[1,0.5]];portConstraint=eastwest;whiteSpace=wrap;html=1;" parent="VvSZPGDxIsRxTQjycEGm-5" vertex="1">
          <mxGeometry y="26" width="160" height="94" as="geometry" />
        </mxCell>
        <mxCell id="VvSZPGDxIsRxTQjycEGm-7" value="" style="line;strokeWidth=1;fillColor=none;align=left;verticalAlign=middle;spacingTop=-1;spacingLeft=3;spacingRight=3;rotatable=0;labelPosition=right;points=[];portConstraint=eastwest;strokeColor=inherit;" parent="VvSZPGDxIsRxTQjycEGm-5" vertex="1">
          <mxGeometry y="120" width="160" height="8" as="geometry" />
        </mxCell>
        <mxCell id="VvSZPGDxIsRxTQjycEGm-8" value="+ method(type): type" style="text;strokeColor=none;fillColor=none;align=left;verticalAlign=top;spacingLeft=4;spacingRight=4;overflow=hidden;rotatable=0;points=[[0,0.5],[1,0.5]];portConstraint=eastwest;whiteSpace=wrap;html=1;" parent="VvSZPGDxIsRxTQjycEGm-5" vertex="1">
          <mxGeometry y="128" width="160" height="26" as="geometry" />
        </mxCell>
        <mxCell id="VvSZPGDxIsRxTQjycEGm-9" value="Compra" style="swimlane;fontStyle=1;align=center;verticalAlign=top;childLayout=stackLayout;horizontal=1;startSize=26;horizontalStack=0;resizeParent=1;resizeParentMax=0;resizeLast=0;collapsible=1;marginBottom=0;whiteSpace=wrap;html=1;" parent="1" vertex="1">
          <mxGeometry x="414" y="150" width="160" height="86" as="geometry" />
        </mxCell>
        <mxCell id="VvSZPGDxIsRxTQjycEGm-10" value="+ field: type" style="text;strokeColor=none;fillColor=none;align=left;verticalAlign=top;spacingLeft=4;spacingRight=4;overflow=hidden;rotatable=0;points=[[0,0.5],[1,0.5]];portConstraint=eastwest;whiteSpace=wrap;html=1;" parent="VvSZPGDxIsRxTQjycEGm-9" vertex="1">
          <mxGeometry y="26" width="160" height="26" as="geometry" />
        </mxCell>
        <mxCell id="VvSZPGDxIsRxTQjycEGm-11" value="" style="line;strokeWidth=1;fillColor=none;align=left;verticalAlign=middle;spacingTop=-1;spacingLeft=3;spacingRight=3;rotatable=0;labelPosition=right;points=[];portConstraint=eastwest;strokeColor=inherit;" parent="VvSZPGDxIsRxTQjycEGm-9" vertex="1">
          <mxGeometry y="52" width="160" height="8" as="geometry" />
        </mxCell>
        <mxCell id="VvSZPGDxIsRxTQjycEGm-12" value="+ method(type): type" style="text;strokeColor=none;fillColor=none;align=left;verticalAlign=top;spacingLeft=4;spacingRight=4;overflow=hidden;rotatable=0;points=[[0,0.5],[1,0.5]];portConstraint=eastwest;whiteSpace=wrap;html=1;" parent="VvSZPGDxIsRxTQjycEGm-9" vertex="1">
          <mxGeometry y="60" width="160" height="26" as="geometry" />
        </mxCell>
        <mxCell id="wye94LXmquLPsYtdrSX1-1" value="Admin" style="swimlane;fontStyle=1;align=center;verticalAlign=top;childLayout=stackLayout;horizontal=1;startSize=26;horizontalStack=0;resizeParent=1;resizeParentMax=0;resizeLast=0;collapsible=1;marginBottom=0;whiteSpace=wrap;html=1;" parent="1" vertex="1">
          <mxGeometry x="110" y="570" width="180" height="140" as="geometry" />
        </mxCell>
        <mxCell id="wye94LXmquLPsYtdrSX1-2" value="+ field: type" style="text;strokeColor=none;fillColor=none;align=left;verticalAlign=top;spacingLeft=4;spacingRight=4;overflow=hidden;rotatable=0;points=[[0,0.5],[1,0.5]];portConstraint=eastwest;whiteSpace=wrap;html=1;" parent="wye94LXmquLPsYtdrSX1-1" vertex="1">
          <mxGeometry y="26" width="180" height="26" as="geometry" />
        </mxCell>
        <mxCell id="wye94LXmquLPsYtdrSX1-3" value="" style="line;strokeWidth=1;fillColor=none;align=left;verticalAlign=middle;spacingTop=-1;spacingLeft=3;spacingRight=3;rotatable=0;labelPosition=right;points=[];portConstraint=eastwest;strokeColor=inherit;" parent="wye94LXmquLPsYtdrSX1-1" vertex="1">
          <mxGeometry y="52" width="180" height="8" as="geometry" />
        </mxCell>
        <mxCell id="wye94LXmquLPsYtdrSX1-4" value="+ apagarUser(type): bool&lt;div&gt;+ cadastrarUser(type): bool&lt;/div&gt;&lt;div&gt;+ apagarAnuncio(type): bool&lt;/div&gt;" style="text;strokeColor=none;fillColor=none;align=left;verticalAlign=top;spacingLeft=4;spacingRight=4;overflow=hidden;rotatable=0;points=[[0,0.5],[1,0.5]];portConstraint=eastwest;whiteSpace=wrap;html=1;" parent="wye94LXmquLPsYtdrSX1-1" vertex="1">
          <mxGeometry y="60" width="180" height="80" as="geometry" />
        </mxCell>
      </root>
    </mxGraphModel>
  </diagram>
</mxfile>
